<svg width="535" height="88" viewBox="0 0 535 88" fill="none" xmlns="http://www.w3.org/2000/svg">
<path d="M25.0547 1.89844V31H20.3281L6.63672 11.1758H6.38281V31H1.10938V1.89844H5.83594L19.5273 21.7227H19.7812V1.89844H25.0547ZM43.2148 21.8398V9.16406H48.3516V31H43.3711V27.1133H43.1367C42.6419 28.3372 41.8346 29.3398 40.7148 30.1211C39.5951 30.9023 38.2148 31.2865 36.5742 31.2734C35.1419 31.2734 33.8789 30.9609 32.7852 30.3359C31.7044 29.6979 30.8516 28.7669 30.2266 27.543C29.6146 26.306 29.3086 24.8151 29.3086 23.0703V9.16406H34.4453V22.2891C34.4453 23.6562 34.8229 24.75 35.5781 25.5703C36.3464 26.3906 37.349 26.7943 38.5859 26.7812C39.3411 26.7812 40.0703 26.599 40.7734 26.2344C41.4896 25.8698 42.0755 25.3229 42.5312 24.5938C42.987 23.8646 43.2148 22.9466 43.2148 21.8398ZM63.2891 9.16406V13.1484H50.7695V9.16406H63.2891ZM53.8359 3.96875H58.9727V24.4375C58.9727 25.2969 59.1615 25.9349 59.5391 26.3516C59.9167 26.7552 60.5156 26.957 61.3359 26.957C61.5573 26.957 61.8047 26.9375 62.0781 26.8984C62.3516 26.8594 62.599 26.8138 62.8203 26.7617L63.6992 30.7852C63.1523 30.9544 62.599 31.0781 62.0391 31.1562C61.4792 31.2474 60.9193 31.293 60.3594 31.293C58.3281 31.293 56.7331 30.7591 55.5742 29.6914C54.4154 28.6107 53.8359 27.1393 53.8359 25.2773V3.96875ZM66.3711 31V9.16406H71.3516V12.8359H71.5859C71.9766 11.5599 72.6602 10.5833 73.6367 9.90625C74.6133 9.21615 75.7266 8.87109 76.9766 8.87109C77.25 8.87109 77.5625 8.88411 77.9141 8.91016C78.2786 8.9362 78.5781 8.96875 78.8125 9.00781V13.7344C78.5911 13.6562 78.2461 13.5911 77.7773 13.5391C77.3086 13.487 76.8594 13.4609 76.4297 13.4609C75.4792 13.4609 74.6328 13.6628 73.8906 14.0664C73.1484 14.4701 72.5625 15.0234 72.1328 15.7266C71.7161 16.4297 71.5078 17.25 71.5078 18.1875V31H66.3711ZM80.9961 31V9.16406H86.1328V31H80.9961ZM83.5742 6.09766C82.7539 6.09766 82.0508 5.82422 81.4648 5.27734C80.8789 4.73047 80.5859 4.07292 80.5859 3.30469C80.5859 2.52344 80.8789 1.85938 81.4648 1.3125C82.0508 0.765625 82.7539 0.492188 83.5742 0.492188C84.3815 0.492188 85.0781 0.765625 85.6641 1.3125C86.25 1.85938 86.543 2.51693 86.543 3.28516C86.543 4.06641 86.25 4.73047 85.6641 5.27734C85.0781 5.82422 84.3815 6.09766 83.5742 6.09766ZM101.07 9.16406V13.1484H88.5508V9.16406H101.07ZM91.6172 3.96875H96.7539V24.4375C96.7539 25.2969 96.9427 25.9349 97.3203 26.3516C97.6979 26.7552 98.2969 26.957 99.1172 26.957C99.3385 26.957 99.5859 26.9375 99.8594 26.8984C100.133 26.8594 100.38 26.8138 100.602 26.7617L101.48 30.7852C100.934 30.9544 100.38 31.0781 99.8203 31.1562C99.2604 31.2474 98.7005 31.293 98.1406 31.293C96.1094 31.293 94.5143 30.7591 93.3555 29.6914C92.1966 28.6107 91.6172 27.1393 91.6172 25.2773V3.96875ZM104.152 31V9.16406H109.289V31H104.152ZM106.73 6.09766C105.91 6.09766 105.207 5.82422 104.621 5.27734C104.035 4.73047 103.742 4.07292 103.742 3.30469C103.742 2.52344 104.035 1.85938 104.621 1.3125C105.207 0.765625 105.91 0.492188 106.73 0.492188C107.538 0.492188 108.234 0.765625 108.82 1.3125C109.406 1.85938 109.699 2.51693 109.699 3.28516C109.699 4.06641 109.406 4.73047 108.82 5.27734C108.234 5.82422 107.538 6.09766 106.73 6.09766ZM122.859 31.4297C120.724 31.4297 118.875 30.9609 117.312 30.0234C115.75 29.0859 114.539 27.7708 113.68 26.0781C112.833 24.3854 112.41 22.4193 112.41 20.1797C112.41 17.9271 112.833 15.9544 113.68 14.2617C114.539 12.556 115.75 11.2344 117.312 10.2969C118.875 9.35938 120.724 8.89062 122.859 8.89062C124.995 8.89062 126.844 9.35938 128.406 10.2969C129.969 11.2344 131.18 12.556 132.039 14.2617C132.898 15.9544 133.328 17.9271 133.328 20.1797C133.328 22.4193 132.898 24.3854 132.039 26.0781C131.18 27.7708 129.969 29.0859 128.406 30.0234C126.844 30.9609 124.995 31.4297 122.859 31.4297ZM122.859 27.2891C124.044 27.2891 125.021 26.9766 125.789 26.3516C126.557 25.7135 127.13 24.8542 127.508 23.7734C127.898 22.6927 128.094 21.4948 128.094 20.1797C128.094 18.8385 127.898 17.6276 127.508 16.5469C127.13 15.4661 126.557 14.6133 125.789 13.9883C125.021 13.3503 124.044 13.0312 122.859 13.0312C121.701 13.0312 120.73 13.3503 119.949 13.9883C119.168 14.6133 118.582 15.4661 118.191 16.5469C117.814 17.6276 117.625 18.8385 117.625 20.1797C117.625 21.4948 117.814 22.6927 118.191 23.7734C118.582 24.8542 119.168 25.7135 119.949 26.3516C120.73 26.9766 121.701 27.2891 122.859 27.2891ZM141.547 18.2266V31H136.41V9.16406H141.449V12.8945H141.703C142.198 11.6706 142.973 10.7005 144.027 9.98438C145.095 9.25521 146.449 8.89062 148.09 8.89062C149.6 8.89062 150.915 9.20964 152.035 9.84766C153.155 10.4857 154.021 11.4232 154.633 12.6602C155.258 13.8841 155.57 15.3685 155.57 17.1133V31H150.434V17.9141C150.434 16.4557 150.056 15.3164 149.301 14.4961C148.546 13.6628 147.504 13.2461 146.176 13.2461C145.277 13.2461 144.477 13.4414 143.773 13.832C143.083 14.2227 142.536 14.7891 142.133 15.5312C141.742 16.2604 141.547 17.1589 141.547 18.2266ZM168.316 31V9.16406H173.453V31H168.316ZM170.895 6.09766C170.074 6.09766 169.371 5.82422 168.785 5.27734C168.199 4.73047 167.906 4.07292 167.906 3.30469C167.906 2.52344 168.199 1.85938 168.785 1.3125C169.371 0.765625 170.074 0.492188 170.895 0.492188C171.702 0.492188 172.398 0.765625 172.984 1.3125C173.57 1.85938 173.863 2.51693 173.863 3.28516C173.863 4.06641 173.57 4.73047 172.984 5.27734C172.398 5.82422 171.702 6.09766 170.895 6.09766ZM194.738 14.9648L190.07 15.4531C189.875 14.737 189.452 14.1055 188.801 13.5586C188.15 12.9987 187.232 12.7188 186.047 12.7188C184.979 12.7188 184.081 12.9531 183.352 13.4219C182.635 13.8906 182.277 14.4896 182.277 15.2188C182.277 15.8568 182.512 16.3841 182.98 16.8008C183.462 17.2044 184.257 17.5299 185.363 17.7773L189.094 18.5586C191.138 18.9883 192.668 19.6914 193.684 20.668C194.699 21.6445 195.207 22.9076 195.207 24.457C195.207 25.8242 194.81 27.0352 194.016 28.0898C193.221 29.1445 192.121 29.9648 190.715 30.5508C189.322 31.1367 187.714 31.4297 185.891 31.4297C183.221 31.4297 181.073 30.8698 179.445 29.75C177.831 28.6172 176.861 27.0482 176.535 25.043L181.555 24.5742C181.776 25.5508 182.258 26.293 183 26.8008C183.755 27.2956 184.719 27.543 185.891 27.543C187.115 27.543 188.098 27.2956 188.84 26.8008C189.582 26.293 189.953 25.6745 189.953 24.9453C189.953 23.7214 188.977 22.888 187.023 22.4453L183.293 21.6641C181.197 21.2083 179.647 20.4727 178.645 19.457C177.642 18.4284 177.141 17.1198 177.141 15.5312C177.141 14.1771 177.512 13.0052 178.254 12.0156C178.996 11.026 180.031 10.2578 181.359 9.71094C182.688 9.16406 184.224 8.89062 185.969 8.89062C188.534 8.89062 190.546 9.44401 192.004 10.5508C193.475 11.6445 194.387 13.1159 194.738 14.9648ZM217.797 9.16406V13.1484H205.277V9.16406H217.797ZM208.344 3.96875H213.48V24.4375C213.48 25.2969 213.669 25.9349 214.047 26.3516C214.424 26.7552 215.023 26.957 215.844 26.957C216.065 26.957 216.312 26.9375 216.586 26.8984C216.859 26.8594 217.107 26.8138 217.328 26.7617L218.207 30.7852C217.66 30.9544 217.107 31.0781 216.547 31.1562C215.987 31.2474 215.427 31.293 214.867 31.293C212.836 31.293 211.241 30.7591 210.082 29.6914C208.923 28.6107 208.344 27.1393 208.344 25.2773V3.96875ZM226.484 18.2266V31H221.348V1.89844H226.367V12.8945H226.641C227.148 11.6576 227.936 10.681 229.004 9.96484C230.072 9.2487 231.445 8.89062 233.125 8.89062C234.635 8.89062 235.951 9.20964 237.07 9.84766C238.203 10.4857 239.082 11.4167 239.707 12.6406C240.332 13.8646 240.645 15.3555 240.645 17.1133V31H235.488V17.9141C235.488 16.4297 235.111 15.2839 234.355 14.4766C233.6 13.6562 232.546 13.2461 231.191 13.2461C230.28 13.2461 229.466 13.4414 228.75 13.832C228.047 14.2227 227.493 14.7891 227.09 15.5312C226.686 16.2604 226.484 17.1589 226.484 18.2266ZM254.352 31.4297C252.164 31.4297 250.276 30.974 248.688 30.0625C247.099 29.138 245.875 27.8359 245.016 26.1562C244.169 24.4766 243.746 22.4974 243.746 20.2188C243.746 17.9661 244.169 15.9935 245.016 14.3008C245.862 12.5951 247.053 11.2669 248.59 10.3164C250.126 9.36589 251.936 8.89062 254.02 8.89062C255.361 8.89062 256.63 9.10547 257.828 9.53516C259.039 9.96484 260.107 10.6289 261.031 11.5273C261.969 12.4258 262.704 13.5716 263.238 14.9648C263.772 16.3451 264.039 17.9922 264.039 19.9062V21.5078H246.148V18.0508H261.48L259.078 19.0664C259.078 17.8294 258.889 16.7552 258.512 15.8438C258.134 14.9193 257.574 14.1966 256.832 13.6758C256.09 13.1549 255.165 12.8945 254.059 12.8945C252.952 12.8945 252.008 13.1549 251.227 13.6758C250.445 14.1966 249.853 14.8997 249.449 15.7852C249.046 16.6576 248.844 17.6341 248.844 18.7148V21.1172C248.844 22.4453 249.072 23.5846 249.527 24.5352C249.996 25.4727 250.647 26.1888 251.48 26.6836C252.327 27.1784 253.31 27.4258 254.43 27.4258C255.159 27.4258 255.823 27.3216 256.422 27.1133C257.034 26.9049 257.555 26.5924 257.984 26.1758C258.427 25.7461 258.766 25.2188 259 24.5938L263.805 25.1602C263.492 26.4232 262.913 27.5299 262.066 28.4805C261.233 29.418 260.159 30.1471 258.844 30.668C257.542 31.1758 256.044 31.4297 254.352 31.4297ZM286.863 9.16406V13.1484H273.992V9.16406H286.863ZM277.195 31V7.11328C277.195 5.64193 277.501 4.41797 278.113 3.44141C278.725 2.46484 279.546 1.73568 280.574 1.25391C281.616 0.772135 282.762 0.53125 284.012 0.53125C284.91 0.53125 285.704 0.602865 286.395 0.746094C287.098 0.889323 287.612 1.01953 287.938 1.13672L286.883 5.12109C286.674 5.04297 286.408 4.97135 286.082 4.90625C285.757 4.82812 285.385 4.78906 284.969 4.78906C284.018 4.78906 283.335 5.02344 282.918 5.49219C282.514 5.96094 282.312 6.625 282.312 7.48438V31H277.195ZM298.383 31.4297C296.247 31.4297 294.398 30.9609 292.836 30.0234C291.273 29.0859 290.062 27.7708 289.203 26.0781C288.357 24.3854 287.934 22.4193 287.934 20.1797C287.934 17.9271 288.357 15.9544 289.203 14.2617C290.062 12.556 291.273 11.2344 292.836 10.2969C294.398 9.35938 296.247 8.89062 298.383 8.89062C300.518 8.89062 302.367 9.35938 303.93 10.2969C305.492 11.2344 306.703 12.556 307.562 14.2617C308.422 15.9544 308.852 17.9271 308.852 20.1797C308.852 22.4193 308.422 24.3854 307.562 26.0781C306.703 27.7708 305.492 29.0859 303.93 30.0234C302.367 30.9609 300.518 31.4297 298.383 31.4297ZM298.383 27.2891C299.568 27.2891 300.544 26.9766 301.312 26.3516C302.081 25.7135 302.654 24.8542 303.031 23.7734C303.422 22.6927 303.617 21.4948 303.617 20.1797C303.617 18.8385 303.422 17.6276 303.031 16.5469C302.654 15.4661 302.081 14.6133 301.312 13.9883C300.544 13.3503 299.568 13.0312 298.383 13.0312C297.224 13.0312 296.254 13.3503 295.473 13.9883C294.691 14.6133 294.105 15.4661 293.715 16.5469C293.337 17.6276 293.148 18.8385 293.148 20.1797C293.148 21.4948 293.337 22.6927 293.715 23.7734C294.105 24.8542 294.691 25.7135 295.473 26.3516C296.254 26.9766 297.224 27.2891 298.383 27.2891ZM325.84 21.8398V9.16406H330.977V31H325.996V27.1133H325.762C325.267 28.3372 324.46 29.3398 323.34 30.1211C322.22 30.9023 320.84 31.2865 319.199 31.2734C317.767 31.2734 316.504 30.9609 315.41 30.3359C314.329 29.6979 313.477 28.7669 312.852 27.543C312.24 26.306 311.934 24.8151 311.934 23.0703V9.16406H317.07V22.2891C317.07 23.6562 317.448 24.75 318.203 25.5703C318.971 26.3906 319.974 26.7943 321.211 26.7812C321.966 26.7812 322.695 26.599 323.398 26.2344C324.115 25.8698 324.701 25.3229 325.156 24.5938C325.612 23.8646 325.84 22.9466 325.84 21.8398ZM340.172 18.2266V31H335.035V9.16406H340.074V12.8945H340.328C340.823 11.6706 341.598 10.7005 342.652 9.98438C343.72 9.25521 345.074 8.89062 346.715 8.89062C348.225 8.89062 349.54 9.20964 350.66 9.84766C351.78 10.4857 352.646 11.4232 353.258 12.6602C353.883 13.8841 354.195 15.3685 354.195 17.1133V31H349.059V17.9141C349.059 16.4557 348.681 15.3164 347.926 14.4961C347.171 13.6628 346.129 13.2461 344.801 13.2461C343.902 13.2461 343.102 13.4414 342.398 13.832C341.708 14.2227 341.161 14.7891 340.758 15.5312C340.367 16.2604 340.172 17.1589 340.172 18.2266ZM366.301 31.3906C364.595 31.3906 363.059 30.9544 361.691 30.082C360.337 29.1966 359.27 27.9141 358.488 26.2344C357.707 24.5547 357.316 22.5169 357.316 20.1211C357.316 17.6862 357.714 15.6354 358.508 13.9688C359.315 12.3021 360.396 11.0391 361.75 10.1797C363.104 9.32031 364.621 8.89062 366.301 8.89062C367.59 8.89062 368.645 9.10547 369.465 9.53516C370.285 9.96484 370.936 10.4857 371.418 11.0977C371.913 11.6966 372.29 12.2565 372.551 12.7773H372.766V1.89844H377.883V31H372.863V27.543H372.551C372.277 28.0768 371.893 28.6432 371.398 29.2422C370.904 29.8281 370.246 30.3359 369.426 30.7656C368.605 31.1823 367.564 31.3906 366.301 31.3906ZM367.727 27.1719C368.82 27.1719 369.745 26.8789 370.5 26.293C371.268 25.694 371.854 24.8672 372.258 23.8125C372.661 22.7448 372.863 21.5078 372.863 20.1016C372.863 18.6823 372.661 17.4518 372.258 16.4102C371.867 15.3555 371.288 14.5417 370.52 13.9688C369.764 13.3958 368.833 13.1094 367.727 13.1094C366.594 13.1094 365.643 13.4089 364.875 14.0078C364.107 14.6068 363.527 15.4336 363.137 16.4883C362.759 17.543 362.57 18.7474 362.57 20.1016C362.57 21.4557 362.766 22.6667 363.156 23.7344C363.547 24.8021 364.12 25.6419 364.875 26.2539C365.643 26.8659 366.594 27.1719 367.727 27.1719ZM388.23 31.4492C386.837 31.4492 385.587 31.2018 384.48 30.707C383.374 30.1992 382.501 29.457 381.863 28.4805C381.225 27.5039 380.906 26.2995 380.906 24.8672C380.906 23.6432 381.134 22.6276 381.59 21.8203C382.046 21.013 382.664 20.3685 383.445 19.8867C384.24 19.4049 385.132 19.0404 386.121 18.793C387.111 18.5326 388.133 18.3503 389.188 18.2461C390.477 18.1029 391.518 17.9792 392.312 17.875C393.107 17.7708 393.68 17.6016 394.031 17.3672C394.396 17.1328 394.578 16.7682 394.578 16.2734V16.1758C394.578 15.1211 394.266 14.3008 393.641 13.7148C393.016 13.1289 392.104 12.8359 390.906 12.8359C389.643 12.8359 388.641 13.1094 387.898 13.6562C387.169 14.2031 386.674 14.8477 386.414 15.5898L381.629 14.9062C382.007 13.5781 382.632 12.4714 383.504 11.5859C384.376 10.6875 385.438 10.0169 386.688 9.57422C387.951 9.11849 389.344 8.89062 390.867 8.89062C391.909 8.89062 392.951 9.01432 393.992 9.26172C395.034 9.49609 395.991 9.89974 396.863 10.4727C397.736 11.0456 398.432 11.8138 398.953 12.7773C399.474 13.7409 399.734 14.9453 399.734 16.3906V31H394.793V27.9922H394.637C394.324 28.5911 393.882 29.1576 393.309 29.6914C392.749 30.2122 392.046 30.6354 391.199 30.9609C390.366 31.2865 389.376 31.4492 388.23 31.4492ZM389.539 27.6602C390.581 27.6602 391.479 27.4583 392.234 27.0547C392.99 26.638 393.576 26.0911 393.992 25.4141C394.409 24.724 394.617 23.9753 394.617 23.168V20.6094C394.448 20.7396 394.174 20.8633 393.797 20.9805C393.419 21.0846 392.99 21.1823 392.508 21.2734C392.026 21.3646 391.551 21.4427 391.082 21.5078C390.626 21.5729 390.229 21.625 389.891 21.6641C389.122 21.7682 388.432 21.944 387.82 22.1914C387.221 22.4258 386.746 22.7513 386.395 23.168C386.043 23.5846 385.867 24.125 385.867 24.7891C385.867 25.7396 386.212 26.4557 386.902 26.9375C387.592 27.4193 388.471 27.6602 389.539 27.6602ZM414.672 9.16406V13.1484H402.152V9.16406H414.672ZM405.219 3.96875H410.355V24.4375C410.355 25.2969 410.544 25.9349 410.922 26.3516C411.299 26.7552 411.898 26.957 412.719 26.957C412.94 26.957 413.188 26.9375 413.461 26.8984C413.734 26.8594 413.982 26.8138 414.203 26.7617L415.082 30.7852C414.535 30.9544 413.982 31.0781 413.422 31.1562C412.862 31.2474 412.302 31.293 411.742 31.293C409.711 31.293 408.116 30.7591 406.957 29.6914C405.798 28.6107 405.219 27.1393 405.219 25.2773V3.96875ZM417.754 31V9.16406H422.891V31H417.754ZM420.332 6.09766C419.512 6.09766 418.809 5.82422 418.223 5.27734C417.637 4.73047 417.344 4.07292 417.344 3.30469C417.344 2.52344 417.637 1.85938 418.223 1.3125C418.809 0.765625 419.512 0.492188 420.332 0.492188C421.139 0.492188 421.836 0.765625 422.422 1.3125C423.008 1.85938 423.301 2.51693 423.301 3.28516C423.301 4.06641 423.008 4.73047 422.422 5.27734C421.836 5.82422 421.139 6.09766 420.332 6.09766ZM436.461 31.4297C434.326 31.4297 432.477 30.9609 430.914 30.0234C429.352 29.0859 428.141 27.7708 427.281 26.0781C426.435 24.3854 426.012 22.4193 426.012 20.1797C426.012 17.9271 426.435 15.9544 427.281 14.2617C428.141 12.556 429.352 11.2344 430.914 10.2969C432.477 9.35938 434.326 8.89062 436.461 8.89062C438.596 8.89062 440.445 9.35938 442.008 10.2969C443.57 11.2344 444.781 12.556 445.641 14.2617C446.5 15.9544 446.93 17.9271 446.93 20.1797C446.93 22.4193 446.5 24.3854 445.641 26.0781C444.781 27.7708 443.57 29.0859 442.008 30.0234C440.445 30.9609 438.596 31.4297 436.461 31.4297ZM436.461 27.2891C437.646 27.2891 438.622 26.9766 439.391 26.3516C440.159 25.7135 440.732 24.8542 441.109 23.7734C441.5 22.6927 441.695 21.4948 441.695 20.1797C441.695 18.8385 441.5 17.6276 441.109 16.5469C440.732 15.4661 440.159 14.6133 439.391 13.9883C438.622 13.3503 437.646 13.0312 436.461 13.0312C435.302 13.0312 434.332 13.3503 433.551 13.9883C432.77 14.6133 432.184 15.4661 431.793 16.5469C431.415 17.6276 431.227 18.8385 431.227 20.1797C431.227 21.4948 431.415 22.6927 431.793 23.7734C432.184 24.8542 432.77 25.7135 433.551 26.3516C434.332 26.9766 435.302 27.2891 436.461 27.2891ZM455.148 18.2266V31H450.012V9.16406H455.051V12.8945H455.305C455.799 11.6706 456.574 10.7005 457.629 9.98438C458.697 9.25521 460.051 8.89062 461.691 8.89062C463.202 8.89062 464.517 9.20964 465.637 9.84766C466.757 10.4857 467.622 11.4232 468.234 12.6602C468.859 13.8841 469.172 15.3685 469.172 17.1133V31H464.035V17.9141C464.035 16.4557 463.658 15.3164 462.902 14.4961C462.147 13.6628 461.105 13.2461 459.777 13.2461C458.879 13.2461 458.078 13.4414 457.375 13.832C456.685 14.2227 456.138 14.7891 455.734 15.5312C455.344 16.2604 455.148 17.1589 455.148 18.2266ZM493.012 9.16406V13.1484H480.141V9.16406H493.012ZM483.344 31V7.11328C483.344 5.64193 483.65 4.41797 484.262 3.44141C484.874 2.46484 485.694 1.73568 486.723 1.25391C487.764 0.772135 488.91 0.53125 490.16 0.53125C491.059 0.53125 491.853 0.602865 492.543 0.746094C493.246 0.889323 493.76 1.01953 494.086 1.13672L493.031 5.12109C492.823 5.04297 492.556 4.97135 492.23 4.90625C491.905 4.82812 491.534 4.78906 491.117 4.78906C490.167 4.78906 489.483 5.02344 489.066 5.49219C488.663 5.96094 488.461 6.625 488.461 7.48438V31H483.344ZM504.531 31.4297C502.396 31.4297 500.547 30.9609 498.984 30.0234C497.422 29.0859 496.211 27.7708 495.352 26.0781C494.505 24.3854 494.082 22.4193 494.082 20.1797C494.082 17.9271 494.505 15.9544 495.352 14.2617C496.211 12.556 497.422 11.2344 498.984 10.2969C500.547 9.35938 502.396 8.89062 504.531 8.89062C506.667 8.89062 508.516 9.35938 510.078 10.2969C511.641 11.2344 512.852 12.556 513.711 14.2617C514.57 15.9544 515 17.9271 515 20.1797C515 22.4193 514.57 24.3854 513.711 26.0781C512.852 27.7708 511.641 29.0859 510.078 30.0234C508.516 30.9609 506.667 31.4297 504.531 31.4297ZM504.531 27.2891C505.716 27.2891 506.693 26.9766 507.461 26.3516C508.229 25.7135 508.802 24.8542 509.18 23.7734C509.57 22.6927 509.766 21.4948 509.766 20.1797C509.766 18.8385 509.57 17.6276 509.18 16.5469C508.802 15.4661 508.229 14.6133 507.461 13.9883C506.693 13.3503 505.716 13.0312 504.531 13.0312C503.372 13.0312 502.402 13.3503 501.621 13.9883C500.84 14.6133 500.254 15.4661 499.863 16.5469C499.486 17.6276 499.297 18.8385 499.297 20.1797C499.297 21.4948 499.486 22.6927 499.863 23.7734C500.254 24.8542 500.84 25.7135 501.621 26.3516C502.402 26.9766 503.372 27.2891 504.531 27.2891ZM518.082 31V9.16406H523.062V12.8359H523.297C523.688 11.5599 524.371 10.5833 525.348 9.90625C526.324 9.21615 527.438 8.87109 528.688 8.87109C528.961 8.87109 529.273 8.88411 529.625 8.91016C529.99 8.9362 530.289 8.96875 530.523 9.00781V13.7344C530.302 13.6562 529.957 13.5911 529.488 13.5391C529.02 13.487 528.57 13.4609 528.141 13.4609C527.19 13.4609 526.344 13.6628 525.602 14.0664C524.859 14.4701 524.273 15.0234 523.844 15.7266C523.427 16.4297 523.219 17.25 523.219 18.1875V31H518.082ZM6.03125 49.8984V79H0.894531V49.8984H6.03125ZM19.6016 79.4297C17.4661 79.4297 15.6172 78.9609 14.0547 78.0234C12.4922 77.0859 11.2812 75.7708 10.4219 74.0781C9.57552 72.3854 9.15234 70.4193 9.15234 68.1797C9.15234 65.9271 9.57552 63.9544 10.4219 62.2617C11.2812 60.556 12.4922 59.2344 14.0547 58.2969C15.6172 57.3594 17.4661 56.8906 19.6016 56.8906C21.737 56.8906 23.5859 57.3594 25.1484 58.2969C26.7109 59.2344 27.9219 60.556 28.7812 62.2617C29.6406 63.9544 30.0703 65.9271 30.0703 68.1797C30.0703 70.4193 29.6406 72.3854 28.7812 74.0781C27.9219 75.7708 26.7109 77.0859 25.1484 78.0234C23.5859 78.9609 21.737 79.4297 19.6016 79.4297ZM19.6016 75.2891C20.7865 75.2891 21.763 74.9766 22.5312 74.3516C23.2995 73.7135 23.8724 72.8542 24.25 71.7734C24.6406 70.6927 24.8359 69.4948 24.8359 68.1797C24.8359 66.8385 24.6406 65.6276 24.25 64.5469C23.8724 63.4661 23.2995 62.6133 22.5312 61.9883C21.763 61.3503 20.7865 61.0312 19.6016 61.0312C18.4427 61.0312 17.4727 61.3503 16.6914 61.9883C15.9102 62.6133 15.3242 63.4661 14.9336 64.5469C14.556 65.6276 14.3672 66.8385 14.3672 68.1797C14.3672 69.4948 14.556 70.6927 14.9336 71.7734C15.3242 72.8542 15.9102 73.7135 16.6914 74.3516C17.4727 74.9766 18.4427 75.2891 19.6016 75.2891ZM38.2891 66.2266V79H33.1523V57.1641H38.1914V60.8945H38.4453C38.9401 59.6706 39.7148 58.7005 40.7695 57.9844C41.8372 57.2552 43.1914 56.8906 44.832 56.8906C46.3424 56.8906 47.6576 57.2096 48.7773 57.8477C49.8971 58.4857 50.763 59.4232 51.375 60.6602C52 61.8841 52.3125 63.3685 52.3125 65.1133V79H47.1758V65.9141C47.1758 64.4557 46.7982 63.3164 46.043 62.4961C45.2878 61.6628 44.2461 61.2461 42.918 61.2461C42.0195 61.2461 41.2188 61.4414 40.5156 61.832C39.8255 62.2227 39.2786 62.7891 38.875 63.5312C38.4844 64.2604 38.2891 65.1589 38.2891 66.2266ZM65.8242 87.6328C63.0508 87.6328 60.8698 87.0924 59.2812 86.0117C57.6927 84.944 56.6706 83.6484 56.2148 82.125L60.8242 80.9922C61.0326 81.4219 61.3385 81.8451 61.7422 82.2617C62.1458 82.6914 62.6862 83.043 63.3633 83.3164C64.0404 83.6029 64.8932 83.7461 65.9219 83.7461C67.3802 83.7461 68.5846 83.388 69.5352 82.6719C70.4987 81.9688 70.9805 80.8164 70.9805 79.2148V75.0938H70.6875C70.4401 75.6146 70.0625 76.1549 69.5547 76.7148C69.0469 77.2617 68.3763 77.7305 67.543 78.1211C66.7227 78.4987 65.681 78.6875 64.418 78.6875C62.7513 78.6875 61.2344 78.2904 59.8672 77.4961C58.513 76.7018 57.4323 75.5169 56.625 73.9414C55.8307 72.3659 55.4336 70.3932 55.4336 68.0234C55.4336 65.6276 55.8307 63.6029 56.625 61.9492C57.4323 60.2956 58.5195 59.0391 59.8867 58.1797C61.2539 57.3203 62.7773 56.8906 64.457 56.8906C65.7331 56.8906 66.7878 57.1055 67.6211 57.5352C68.4544 57.9648 69.1185 58.4857 69.6133 59.0977C70.1081 59.6966 70.4922 60.2565 70.7656 60.7773H71.0391V57.1641H76.0586V79.3516C76.0586 81.2135 75.6159 82.7565 74.7305 83.9805C73.8451 85.2044 72.6276 86.1159 71.0781 86.7148C69.5417 87.3268 67.7904 87.6328 65.8242 87.6328ZM65.8633 74.6445C67.5039 74.6445 68.7669 74.0586 69.6523 72.8867C70.5508 71.7018 71 70.0677 71 67.9844C71 66.6042 70.8047 65.3997 70.4141 64.3711C70.0234 63.3424 69.444 62.5417 68.6758 61.9688C67.9076 61.3958 66.9701 61.1094 65.8633 61.1094C64.7174 61.1094 63.7604 61.4089 62.9922 62.0078C62.224 62.6068 61.6445 63.4271 61.2539 64.4688C60.8763 65.4974 60.6875 66.6693 60.6875 67.9844C60.6875 69.3125 60.8828 70.4779 61.2734 71.4805C61.6641 72.4831 62.2435 73.2643 63.0117 73.8242C63.793 74.3711 64.7435 74.6445 65.8633 74.6445ZM89.7656 79.4297C87.5781 79.4297 85.6901 78.974 84.1016 78.0625C82.513 77.138 81.2891 75.8359 80.4297 74.1562C79.5833 72.4766 79.1602 70.4974 79.1602 68.2188C79.1602 65.9661 79.5833 63.9935 80.4297 62.3008C81.276 60.5951 82.4674 59.2669 84.0039 58.3164C85.5404 57.3659 87.3503 56.8906 89.4336 56.8906C90.7747 56.8906 92.0443 57.1055 93.2422 57.5352C94.4531 57.9648 95.5208 58.6289 96.4453 59.5273C97.3828 60.4258 98.1185 61.5716 98.6523 62.9648C99.1862 64.3451 99.4531 65.9922 99.4531 67.9062V69.5078H81.5625V66.0508H96.8945L94.4922 67.0664C94.4922 65.8294 94.3034 64.7552 93.9258 63.8438C93.5482 62.9193 92.9883 62.1966 92.2461 61.6758C91.5039 61.1549 90.5794 60.8945 89.4727 60.8945C88.3659 60.8945 87.4219 61.1549 86.6406 61.6758C85.8594 62.1966 85.2669 62.8997 84.8633 63.7852C84.4596 64.6576 84.2578 65.6341 84.2578 66.7148V69.1172C84.2578 70.4453 84.4857 71.5846 84.9414 72.5352C85.4102 73.4727 86.0612 74.1888 86.8945 74.6836C87.7409 75.1784 88.724 75.4258 89.8438 75.4258C90.5729 75.4258 91.237 75.3216 91.8359 75.1133C92.4479 74.9049 92.9688 74.5924 93.3984 74.1758C93.8411 73.7461 94.1797 73.2188 94.4141 72.5938L99.2188 73.1602C98.9062 74.4232 98.3268 75.5299 97.4805 76.4805C96.6471 77.418 95.5729 78.1471 94.2578 78.668C92.9557 79.1758 91.4583 79.4297 89.7656 79.4297ZM102.496 79V57.1641H107.477V60.8359H107.711C108.102 59.5599 108.785 58.5833 109.762 57.9062C110.738 57.2161 111.852 56.8711 113.102 56.8711C113.375 56.8711 113.688 56.8841 114.039 56.9102C114.404 56.9362 114.703 56.9688 114.938 57.0078V61.7344C114.716 61.6562 114.371 61.5911 113.902 61.5391C113.434 61.487 112.984 61.4609 112.555 61.4609C111.604 61.4609 110.758 61.6628 110.016 62.0664C109.273 62.4701 108.688 63.0234 108.258 63.7266C107.841 64.4297 107.633 65.25 107.633 66.1875V79H102.496ZM114.367 86.4805L116.086 74.6836H121.359L117.941 86.4805H114.367ZM139.672 66.2266V79H134.535V49.8984H139.555V60.8945H139.828C140.336 59.6576 141.124 58.681 142.191 57.9648C143.259 57.2487 144.633 56.8906 146.312 56.8906C147.823 56.8906 149.138 57.2096 150.258 57.8477C151.391 58.4857 152.27 59.4167 152.895 60.6406C153.52 61.8646 153.832 63.3555 153.832 65.1133V79H148.676V65.9141C148.676 64.4297 148.298 63.2839 147.543 62.4766C146.788 61.6562 145.733 61.2461 144.379 61.2461C143.467 61.2461 142.654 61.4414 141.938 61.832C141.234 62.2227 140.681 62.7891 140.277 63.5312C139.874 64.2604 139.672 65.1589 139.672 66.2266ZM167.539 79.4297C165.352 79.4297 163.464 78.974 161.875 78.0625C160.286 77.138 159.062 75.8359 158.203 74.1562C157.357 72.4766 156.934 70.4974 156.934 68.2188C156.934 65.9661 157.357 63.9935 158.203 62.3008C159.049 60.5951 160.241 59.2669 161.777 58.3164C163.314 57.3659 165.124 56.8906 167.207 56.8906C168.548 56.8906 169.818 57.1055 171.016 57.5352C172.227 57.9648 173.294 58.6289 174.219 59.5273C175.156 60.4258 175.892 61.5716 176.426 62.9648C176.96 64.3451 177.227 65.9922 177.227 67.9062V69.5078H159.336V66.0508H174.668L172.266 67.0664C172.266 65.8294 172.077 64.7552 171.699 63.8438C171.322 62.9193 170.762 62.1966 170.02 61.6758C169.277 61.1549 168.353 60.8945 167.246 60.8945C166.139 60.8945 165.195 61.1549 164.414 61.6758C163.633 62.1966 163.04 62.8997 162.637 63.7852C162.233 64.6576 162.031 65.6341 162.031 66.7148V69.1172C162.031 70.4453 162.259 71.5846 162.715 72.5352C163.184 73.4727 163.835 74.1888 164.668 74.6836C165.514 75.1784 166.497 75.4258 167.617 75.4258C168.346 75.4258 169.01 75.3216 169.609 75.1133C170.221 74.9049 170.742 74.5924 171.172 74.1758C171.615 73.7461 171.953 73.2188 172.188 72.5938L176.992 73.1602C176.68 74.4232 176.1 75.5299 175.254 76.4805C174.421 77.418 173.346 78.1471 172.031 78.668C170.729 79.1758 169.232 79.4297 167.539 79.4297ZM186.559 79.4492C185.165 79.4492 183.915 79.2018 182.809 78.707C181.702 78.1992 180.829 77.457 180.191 76.4805C179.553 75.5039 179.234 74.2995 179.234 72.8672C179.234 71.6432 179.462 70.6276 179.918 69.8203C180.374 69.013 180.992 68.3685 181.773 67.8867C182.568 67.4049 183.46 67.0404 184.449 66.793C185.439 66.5326 186.461 66.3503 187.516 66.2461C188.805 66.1029 189.846 65.9792 190.641 65.875C191.435 65.7708 192.008 65.6016 192.359 65.3672C192.724 65.1328 192.906 64.7682 192.906 64.2734V64.1758C192.906 63.1211 192.594 62.3008 191.969 61.7148C191.344 61.1289 190.432 60.8359 189.234 60.8359C187.971 60.8359 186.969 61.1094 186.227 61.6562C185.497 62.2031 185.003 62.8477 184.742 63.5898L179.957 62.9062C180.335 61.5781 180.96 60.4714 181.832 59.5859C182.704 58.6875 183.766 58.0169 185.016 57.5742C186.279 57.1185 187.672 56.8906 189.195 56.8906C190.237 56.8906 191.279 57.0143 192.32 57.2617C193.362 57.4961 194.319 57.8997 195.191 58.4727C196.064 59.0456 196.76 59.8138 197.281 60.7773C197.802 61.7409 198.062 62.9453 198.062 64.3906V79H193.121V75.9922H192.965C192.652 76.5911 192.21 77.1576 191.637 77.6914C191.077 78.2122 190.374 78.6354 189.527 78.9609C188.694 79.2865 187.704 79.4492 186.559 79.4492ZM187.867 75.6602C188.909 75.6602 189.807 75.4583 190.562 75.0547C191.318 74.638 191.904 74.0911 192.32 73.4141C192.737 72.724 192.945 71.9753 192.945 71.168V68.6094C192.776 68.7396 192.503 68.8633 192.125 68.9805C191.747 69.0846 191.318 69.1823 190.836 69.2734C190.354 69.3646 189.879 69.4427 189.41 69.5078C188.954 69.5729 188.557 69.625 188.219 69.6641C187.451 69.7682 186.76 69.944 186.148 70.1914C185.549 70.4258 185.074 70.7513 184.723 71.168C184.371 71.5846 184.195 72.125 184.195 72.7891C184.195 73.7396 184.54 74.4557 185.23 74.9375C185.921 75.4193 186.799 75.6602 187.867 75.6602ZM207.258 49.8984V79H202.121V49.8984H207.258ZM222.195 57.1641V61.1484H209.676V57.1641H222.195ZM212.742 51.9688H217.879V72.4375C217.879 73.2969 218.068 73.9349 218.445 74.3516C218.823 74.7552 219.422 74.957 220.242 74.957C220.464 74.957 220.711 74.9375 220.984 74.8984C221.258 74.8594 221.505 74.8138 221.727 74.7617L222.605 78.7852C222.059 78.9544 221.505 79.0781 220.945 79.1562C220.385 79.2474 219.826 79.293 219.266 79.293C217.234 79.293 215.639 78.7591 214.48 77.6914C213.322 76.6107 212.742 75.1393 212.742 73.2773V51.9688ZM230.883 66.2266V79H225.746V49.8984H230.766V60.8945H231.039C231.547 59.6576 232.335 58.681 233.402 57.9648C234.47 57.2487 235.844 56.8906 237.523 56.8906C239.034 56.8906 240.349 57.2096 241.469 57.8477C242.602 58.4857 243.48 59.4167 244.105 60.6406C244.73 61.8646 245.043 63.3555 245.043 65.1133V79H239.887V65.9141C239.887 64.4297 239.509 63.2839 238.754 62.4766C237.999 61.6562 236.944 61.2461 235.59 61.2461C234.678 61.2461 233.865 61.4414 233.148 61.832C232.445 62.2227 231.892 62.7891 231.488 63.5312C231.085 64.2604 230.883 65.1589 230.883 66.2266ZM249.082 79V57.1641H254.219V79H249.082ZM251.66 54.0977C250.84 54.0977 250.137 53.8242 249.551 53.2773C248.965 52.7305 248.672 52.0729 248.672 51.3047C248.672 50.5234 248.965 49.8594 249.551 49.3125C250.137 48.7656 250.84 48.4922 251.66 48.4922C252.467 48.4922 253.164 48.7656 253.75 49.3125C254.336 49.8594 254.629 50.5169 254.629 51.2852C254.629 52.0664 254.336 52.7305 253.75 53.2773C253.164 53.8242 252.467 54.0977 251.66 54.0977ZM267.945 79.4297C265.758 79.4297 263.87 78.974 262.281 78.0625C260.693 77.138 259.469 75.8359 258.609 74.1562C257.763 72.4766 257.34 70.4974 257.34 68.2188C257.34 65.9661 257.763 63.9935 258.609 62.3008C259.456 60.5951 260.647 59.2669 262.184 58.3164C263.72 57.3659 265.53 56.8906 267.613 56.8906C268.954 56.8906 270.224 57.1055 271.422 57.5352C272.633 57.9648 273.701 58.6289 274.625 59.5273C275.562 60.4258 276.298 61.5716 276.832 62.9648C277.366 64.3451 277.633 65.9922 277.633 67.9062V69.5078H259.742V66.0508H275.074L272.672 67.0664C272.672 65.8294 272.483 64.7552 272.105 63.8438C271.728 62.9193 271.168 62.1966 270.426 61.6758C269.684 61.1549 268.759 60.8945 267.652 60.8945C266.546 60.8945 265.602 61.1549 264.82 61.6758C264.039 62.1966 263.447 62.8997 263.043 63.7852C262.639 64.6576 262.438 65.6341 262.438 66.7148V69.1172C262.438 70.4453 262.665 71.5846 263.121 72.5352C263.59 73.4727 264.241 74.1888 265.074 74.6836C265.921 75.1784 266.904 75.4258 268.023 75.4258C268.753 75.4258 269.417 75.3216 270.016 75.1133C270.628 74.9049 271.148 74.5924 271.578 74.1758C272.021 73.7461 272.359 73.2188 272.594 72.5938L277.398 73.1602C277.086 74.4232 276.507 75.5299 275.66 76.4805C274.827 77.418 273.753 78.1471 272.438 78.668C271.135 79.1758 269.638 79.4297 267.945 79.4297ZM280.676 79V57.1641H285.656V60.8359H285.891C286.281 59.5599 286.965 58.5833 287.941 57.9062C288.918 57.2161 290.031 56.8711 291.281 56.8711C291.555 56.8711 291.867 56.8841 292.219 56.9102C292.583 56.9362 292.883 56.9688 293.117 57.0078V61.7344C292.896 61.6562 292.551 61.5911 292.082 61.5391C291.613 61.487 291.164 61.4609 290.734 61.4609C289.784 61.4609 288.938 61.6628 288.195 62.0664C287.453 62.4701 286.867 63.0234 286.438 63.7266C286.021 64.4297 285.812 65.25 285.812 66.1875V79H280.676ZM309.125 49.8984V79H303.988V49.8984H309.125ZM313.184 79V57.1641H318.32V79H313.184ZM315.762 54.0977C314.941 54.0977 314.238 53.8242 313.652 53.2773C313.066 52.7305 312.773 52.0729 312.773 51.3047C312.773 50.5234 313.066 49.8594 313.652 49.3125C314.238 48.7656 314.941 48.4922 315.762 48.4922C316.569 48.4922 317.266 48.7656 317.852 49.3125C318.438 49.8594 318.73 50.5169 318.73 51.2852C318.73 52.0664 318.438 52.7305 317.852 53.2773C317.266 53.8242 316.569 54.0977 315.762 54.0977ZM341.871 57.1641L334.098 79H328.395L320.641 57.1641H326.129L331.188 73.3945H331.422L336.441 57.1641H341.871ZM353.117 79.4297C350.93 79.4297 349.042 78.974 347.453 78.0625C345.865 77.138 344.641 75.8359 343.781 74.1562C342.935 72.4766 342.512 70.4974 342.512 68.2188C342.512 65.9661 342.935 63.9935 343.781 62.3008C344.628 60.5951 345.819 59.2669 347.355 58.3164C348.892 57.3659 350.702 56.8906 352.785 56.8906C354.126 56.8906 355.396 57.1055 356.594 57.5352C357.805 57.9648 358.872 58.6289 359.797 59.5273C360.734 60.4258 361.47 61.5716 362.004 62.9648C362.538 64.3451 362.805 65.9922 362.805 67.9062V69.5078H344.914V66.0508H360.246L357.844 67.0664C357.844 65.8294 357.655 64.7552 357.277 63.8438C356.9 62.9193 356.34 62.1966 355.598 61.6758C354.855 61.1549 353.931 60.8945 352.824 60.8945C351.717 60.8945 350.773 61.1549 349.992 61.6758C349.211 62.1966 348.618 62.8997 348.215 63.7852C347.811 64.6576 347.609 65.6341 347.609 66.7148V69.1172C347.609 70.4453 347.837 71.5846 348.293 72.5352C348.762 73.4727 349.413 74.1888 350.246 74.6836C351.092 75.1784 352.076 75.4258 353.195 75.4258C353.924 75.4258 354.589 75.3216 355.188 75.1133C355.799 74.9049 356.32 74.5924 356.75 74.1758C357.193 73.7461 357.531 73.2188 357.766 72.5938L362.57 73.1602C362.258 74.4232 361.678 75.5299 360.832 76.4805C359.999 77.418 358.924 78.1471 357.609 78.668C356.307 79.1758 354.81 79.4297 353.117 79.4297ZM383.074 62.9648L378.406 63.4531C378.211 62.737 377.788 62.1055 377.137 61.5586C376.486 60.9987 375.568 60.7188 374.383 60.7188C373.315 60.7188 372.417 60.9531 371.688 61.4219C370.971 61.8906 370.613 62.4896 370.613 63.2188C370.613 63.8568 370.848 64.3841 371.316 64.8008C371.798 65.2044 372.592 65.5299 373.699 65.7773L377.43 66.5586C379.474 66.9883 381.004 67.6914 382.02 68.668C383.035 69.6445 383.543 70.9076 383.543 72.457C383.543 73.8242 383.146 75.0352 382.352 76.0898C381.557 77.1445 380.457 77.9648 379.051 78.5508C377.658 79.1367 376.049 79.4297 374.227 79.4297C371.557 79.4297 369.409 78.8698 367.781 77.75C366.167 76.6172 365.197 75.0482 364.871 73.043L369.891 72.5742C370.112 73.5508 370.594 74.293 371.336 74.8008C372.091 75.2956 373.055 75.543 374.227 75.543C375.451 75.543 376.434 75.2956 377.176 74.8008C377.918 74.293 378.289 73.6745 378.289 72.9453C378.289 71.7214 377.312 70.888 375.359 70.4453L371.629 69.6641C369.533 69.2083 367.983 68.4727 366.98 67.457C365.978 66.4284 365.477 65.1198 365.477 63.5312C365.477 62.1771 365.848 61.0052 366.59 60.0156C367.332 59.026 368.367 58.2578 369.695 57.7109C371.023 57.1641 372.56 56.8906 374.305 56.8906C376.87 56.8906 378.882 57.444 380.34 58.5508C381.811 59.6445 382.723 61.1159 383.074 62.9648ZM395.254 79V57.1641H400.391V79H395.254ZM397.832 54.0977C397.012 54.0977 396.309 53.8242 395.723 53.2773C395.137 52.7305 394.844 52.0729 394.844 51.3047C394.844 50.5234 395.137 49.8594 395.723 49.3125C396.309 48.7656 397.012 48.4922 397.832 48.4922C398.639 48.4922 399.336 48.7656 399.922 49.3125C400.508 49.8594 400.801 50.5169 400.801 51.2852C400.801 52.0664 400.508 52.7305 399.922 53.2773C399.336 53.8242 398.639 54.0977 397.832 54.0977ZM409.586 66.2266V79H404.449V57.1641H409.488V60.8945H409.742C410.237 59.6706 411.012 58.7005 412.066 57.9844C413.134 57.2552 414.488 56.8906 416.129 56.8906C417.639 56.8906 418.954 57.2096 420.074 57.8477C421.194 58.4857 422.06 59.4232 422.672 60.6602C423.297 61.8841 423.609 63.3685 423.609 65.1133V79H418.473V65.9141C418.473 64.4557 418.095 63.3164 417.34 62.4961C416.585 61.6628 415.543 61.2461 414.215 61.2461C413.316 61.2461 412.516 61.4414 411.812 61.832C411.122 62.2227 410.576 62.7891 410.172 63.5312C409.781 64.2604 409.586 65.1589 409.586 66.2266ZM444.402 79.3906C442.697 79.3906 441.16 78.9544 439.793 78.082C438.439 77.1966 437.371 75.9141 436.59 74.2344C435.809 72.5547 435.418 70.5169 435.418 68.1211C435.418 65.6862 435.815 63.6354 436.609 61.9688C437.417 60.3021 438.497 59.0391 439.852 58.1797C441.206 57.3203 442.723 56.8906 444.402 56.8906C445.691 56.8906 446.746 57.1055 447.566 57.5352C448.387 57.9648 449.038 58.4857 449.52 59.0977C450.014 59.6966 450.392 60.2565 450.652 60.7773H450.867V49.8984H455.984V79H450.965V75.543H450.652C450.379 76.0768 449.995 76.6432 449.5 77.2422C449.005 77.8281 448.348 78.3359 447.527 78.7656C446.707 79.1823 445.665 79.3906 444.402 79.3906ZM445.828 75.1719C446.922 75.1719 447.846 74.8789 448.602 74.293C449.37 73.694 449.956 72.8672 450.359 71.8125C450.763 70.7448 450.965 69.5078 450.965 68.1016C450.965 66.6823 450.763 65.4518 450.359 64.4102C449.969 63.3555 449.389 62.5417 448.621 61.9688C447.866 61.3958 446.935 61.1094 445.828 61.1094C444.695 61.1094 443.745 61.4089 442.977 62.0078C442.208 62.6068 441.629 63.4336 441.238 64.4883C440.861 65.543 440.672 66.7474 440.672 68.1016C440.672 69.4557 440.867 70.6667 441.258 71.7344C441.648 72.8021 442.221 73.6419 442.977 74.2539C443.745 74.8659 444.695 75.1719 445.828 75.1719ZM469.555 79.4297C467.419 79.4297 465.57 78.9609 464.008 78.0234C462.445 77.0859 461.234 75.7708 460.375 74.0781C459.529 72.3854 459.105 70.4193 459.105 68.1797C459.105 65.9271 459.529 63.9544 460.375 62.2617C461.234 60.556 462.445 59.2344 464.008 58.2969C465.57 57.3594 467.419 56.8906 469.555 56.8906C471.69 56.8906 473.539 57.3594 475.102 58.2969C476.664 59.2344 477.875 60.556 478.734 62.2617C479.594 63.9544 480.023 65.9271 480.023 68.1797C480.023 70.4193 479.594 72.3854 478.734 74.0781C477.875 75.7708 476.664 77.0859 475.102 78.0234C473.539 78.9609 471.69 79.4297 469.555 79.4297ZM469.555 75.2891C470.74 75.2891 471.716 74.9766 472.484 74.3516C473.253 73.7135 473.826 72.8542 474.203 71.7734C474.594 70.6927 474.789 69.4948 474.789 68.1797C474.789 66.8385 474.594 65.6276 474.203 64.5469C473.826 63.4661 473.253 62.6133 472.484 61.9883C471.716 61.3503 470.74 61.0312 469.555 61.0312C468.396 61.0312 467.426 61.3503 466.645 61.9883C465.863 62.6133 465.277 63.4661 464.887 64.5469C464.509 65.6276 464.32 66.8385 464.32 68.1797C464.32 69.4948 464.509 70.6927 464.887 71.7734C465.277 72.8542 465.863 73.7135 466.645 74.3516C467.426 74.9766 468.396 75.2891 469.555 75.2891ZM492.559 87.6328C489.785 87.6328 487.604 87.0924 486.016 86.0117C484.427 84.944 483.405 83.6484 482.949 82.125L487.559 80.9922C487.767 81.4219 488.073 81.8451 488.477 82.2617C488.88 82.6914 489.421 83.043 490.098 83.3164C490.775 83.6029 491.628 83.7461 492.656 83.7461C494.115 83.7461 495.319 83.388 496.27 82.6719C497.233 81.9688 497.715 80.8164 497.715 79.2148V75.0938H497.422C497.174 75.6146 496.797 76.1549 496.289 76.7148C495.781 77.2617 495.111 77.7305 494.277 78.1211C493.457 78.4987 492.415 78.6875 491.152 78.6875C489.486 78.6875 487.969 78.2904 486.602 77.4961C485.247 76.7018 484.167 75.5169 483.359 73.9414C482.565 72.3659 482.168 70.3932 482.168 68.0234C482.168 65.6276 482.565 63.6029 483.359 61.9492C484.167 60.2956 485.254 59.0391 486.621 58.1797C487.988 57.3203 489.512 56.8906 491.191 56.8906C492.467 56.8906 493.522 57.1055 494.355 57.5352C495.189 57.9648 495.853 58.4857 496.348 59.0977C496.842 59.6966 497.227 60.2565 497.5 60.7773H497.773V57.1641H502.793V79.3516C502.793 81.2135 502.35 82.7565 501.465 83.9805C500.579 85.2044 499.362 86.1159 497.812 86.7148C496.276 87.3268 494.525 87.6328 492.559 87.6328ZM492.598 74.6445C494.238 74.6445 495.501 74.0586 496.387 72.8867C497.285 71.7018 497.734 70.0677 497.734 67.9844C497.734 66.6042 497.539 65.3997 497.148 64.3711C496.758 63.3424 496.178 62.5417 495.41 61.9688C494.642 61.3958 493.704 61.1094 492.598 61.1094C491.452 61.1094 490.495 61.4089 489.727 62.0078C488.958 62.6068 488.379 63.4271 487.988 64.4688C487.611 65.4974 487.422 66.6693 487.422 67.9844C487.422 69.3125 487.617 70.4779 488.008 71.4805C488.398 72.4831 488.978 73.2643 489.746 73.8242C490.527 74.3711 491.478 74.6445 492.598 74.6445ZM524.059 62.9648L519.391 63.4531C519.195 62.737 518.772 62.1055 518.121 61.5586C517.47 60.9987 516.552 60.7188 515.367 60.7188C514.299 60.7188 513.401 60.9531 512.672 61.4219C511.956 61.8906 511.598 62.4896 511.598 63.2188C511.598 63.8568 511.832 64.3841 512.301 64.8008C512.783 65.2044 513.577 65.5299 514.684 65.7773L518.414 66.5586C520.458 66.9883 521.988 67.6914 523.004 68.668C524.02 69.6445 524.527 70.9076 524.527 72.457C524.527 73.8242 524.13 75.0352 523.336 76.0898C522.542 77.1445 521.441 77.9648 520.035 78.5508C518.642 79.1367 517.034 79.4297 515.211 79.4297C512.542 79.4297 510.393 78.8698 508.766 77.75C507.151 76.6172 506.181 75.0482 505.855 73.043L510.875 72.5742C511.096 73.5508 511.578 74.293 512.32 74.8008C513.076 75.2956 514.039 75.543 515.211 75.543C516.435 75.543 517.418 75.2956 518.16 74.8008C518.902 74.293 519.273 73.6745 519.273 72.9453C519.273 71.7214 518.297 70.888 516.344 70.4453L512.613 69.6641C510.517 69.2083 508.967 68.4727 507.965 67.457C506.962 66.4284 506.461 65.1198 506.461 63.5312C506.461 62.1771 506.832 61.0052 507.574 60.0156C508.316 59.026 509.352 58.2578 510.68 57.7109C512.008 57.1641 513.544 56.8906 515.289 56.8906C517.854 56.8906 519.866 57.444 521.324 58.5508C522.796 59.6445 523.707 61.1159 524.059 62.9648ZM531.301 79.332C530.415 79.332 529.667 79.0326 529.055 78.4336C528.456 77.8216 528.156 77.0794 528.156 76.207C528.156 75.3346 528.456 74.599 529.055 74C529.667 73.388 530.415 73.082 531.301 73.082C532.186 73.082 532.928 73.388 533.527 74C534.139 74.599 534.445 75.3346 534.445 76.207C534.445 77.0794 534.139 77.8216 533.527 78.4336C532.928 79.0326 532.186 79.332 531.301 79.332Z" fill="#161723"/>
</svg>
