<svg width="210" height="20" viewBox="0 0 210 20" fill="none" xmlns="http://www.w3.org/2000/svg">
<path d="M5.33801 3.59C4.38559 3.85248 3.43965 4.1379 2.50101 4.446C2.41529 4.47376 2.3391 4.52504 2.28111 4.59399C2.22312 4.66295 2.18567 4.7468 2.17301 4.836C1.61901 8.993 2.89901 12.026 4.42601 14.024C5.07252 14.8784 5.84341 15.6311 6.71301 16.257C7.05901 16.501 7.36501 16.677 7.60601 16.79C7.72601 16.847 7.82401 16.885 7.89901 16.908C7.93181 16.9195 7.96562 16.9279 8.00001 16.933C8.03398 16.9275 8.06743 16.9191 8.10001 16.908C8.17601 16.885 8.27401 16.847 8.39401 16.79C8.63401 16.677 8.94101 16.5 9.28701 16.257C10.1566 15.6311 10.9275 14.8784 11.574 14.024C13.101 12.027 14.381 8.993 13.827 4.836C13.8145 4.74676 13.777 4.66285 13.719 4.59388C13.661 4.52491 13.5848 4.47366 13.499 4.446C12.848 4.233 11.749 3.886 10.662 3.591C9.55201 3.29 8.53101 3.067 8.00001 3.067C7.47001 3.067 6.44801 3.29 5.33801 3.591V3.59ZM5.07201 2.56C6.15701 2.265 7.31001 2 8.00001 2C8.69001 2 9.84301 2.265 10.928 2.56C12.038 2.86 13.157 3.215 13.815 3.43C14.0901 3.52085 14.334 3.68747 14.5187 3.9107C14.7034 4.13394 14.8213 4.40474 14.859 4.692C15.455 9.169 14.072 12.487 12.394 14.682C11.6824 15.621 10.834 16.4479 9.87701 17.135C9.5461 17.3728 9.19549 17.5819 8.82901 17.76C8.54901 17.892 8.24801 18 8.00001 18C7.75201 18 7.45201 17.892 7.17101 17.76C6.80452 17.5819 6.45391 17.3728 6.12301 17.135C5.16603 16.4478 4.31759 15.621 3.60601 14.682C1.92801 12.487 0.545005 9.169 1.14101 4.692C1.17869 4.40474 1.29665 4.13394 1.48132 3.9107C1.666 3.68747 1.9099 3.52085 2.18501 3.43C3.1402 3.11681 4.10281 2.82672 5.07201 2.56Z" fill="#424153"/>
<path d="M10.8546 7.14687C10.9012 7.19331 10.9381 7.24849 10.9633 7.30923C10.9885 7.36998 11.0015 7.4351 11.0015 7.50087C11.0015 7.56663 10.9885 7.63175 10.9633 7.6925C10.9381 7.75324 10.9012 7.80842 10.8546 7.85487L7.85461 10.8549C7.80817 10.9014 7.75299 10.9384 7.69225 10.9636C7.6315 10.9888 7.56638 11.0018 7.50061 11.0018C7.43484 11.0018 7.36972 10.9888 7.30898 10.9636C7.24823 10.9384 7.19306 10.9014 7.14661 10.8549L5.64661 9.35487C5.60012 9.30838 5.56325 9.25319 5.53809 9.19245C5.51293 9.13171 5.49998 9.06661 5.49998 9.00087C5.49998 8.93512 5.51293 8.87002 5.53809 8.80928C5.56325 8.74854 5.60012 8.69335 5.64661 8.64687C5.6931 8.60038 5.74829 8.5635 5.80903 8.53834C5.86977 8.51318 5.93487 8.50023 6.00061 8.50023C6.06636 8.50023 6.13146 8.51318 6.1922 8.53834C6.25294 8.5635 6.30812 8.60038 6.35461 8.64687L7.50061 9.79387L10.1466 7.14687C10.1931 7.1003 10.2482 7.06336 10.309 7.03815C10.3697 7.01295 10.4348 6.99997 10.5006 6.99997C10.5664 6.99997 10.6315 7.01295 10.6922 7.03815C10.753 7.06336 10.8082 7.1003 10.8546 7.14687Z" fill="#424153"/>
<path d="M27.8721 15.127C27.2585 15.127 26.7147 15.0233 26.2407 14.8159C25.7668 14.6086 25.3901 14.3187 25.1108 13.9463C24.8315 13.5697 24.6813 13.1338 24.6602 12.6387H25.8154C25.8408 12.9434 25.9445 13.2057 26.1265 13.4258C26.3127 13.6458 26.5539 13.8151 26.8501 13.9336C27.1506 14.0521 27.4827 14.1113 27.8467 14.1113C28.2529 14.1113 28.6126 14.0415 28.9258 13.9019C29.2432 13.758 29.4907 13.5612 29.6685 13.3115C29.8504 13.0576 29.9414 12.7656 29.9414 12.4355C29.9414 12.0843 29.8547 11.7754 29.6812 11.5088C29.5076 11.2422 29.2537 11.0348 28.9194 10.8867C28.5894 10.7344 28.1852 10.6582 27.707 10.6582H26.9453V9.64258H27.707C28.0794 9.64258 28.4074 9.57487 28.6909 9.43945C28.9744 9.30404 29.1966 9.11361 29.3574 8.86816C29.5182 8.62272 29.5986 8.33496 29.5986 8.00488C29.5986 7.68327 29.5288 7.40397 29.3892 7.16699C29.2495 6.93001 29.0506 6.74593 28.7925 6.61475C28.5386 6.48356 28.236 6.41797 27.8848 6.41797C27.5589 6.41797 27.2521 6.47721 26.9644 6.5957C26.6766 6.71419 26.4417 6.88346 26.2598 7.10352C26.0778 7.32357 25.9805 7.59017 25.9678 7.90332H24.8633C24.8802 7.4082 25.0283 6.97445 25.3076 6.60205C25.5869 6.22965 25.953 5.93978 26.4058 5.73242C26.8628 5.52083 27.3643 5.41504 27.9102 5.41504C28.4941 5.41504 28.9956 5.53353 29.4146 5.77051C29.8335 6.00326 30.1551 6.31217 30.3794 6.69727C30.6037 7.08236 30.7158 7.49707 30.7158 7.94141C30.7158 8.47884 30.5762 8.93376 30.2969 9.30615C30.0218 9.67855 29.6452 9.9388 29.167 10.0869V10.1631C29.7594 10.2604 30.2228 10.5143 30.5571 10.9248C30.8914 11.3311 31.0586 11.8346 31.0586 12.4355C31.0586 12.9476 30.9189 13.4067 30.6396 13.813C30.3646 14.2192 29.9858 14.5409 29.5034 14.7778C29.0252 15.0106 28.4814 15.127 27.8721 15.127ZM35.9258 15.127C35.2318 15.127 34.6393 14.9365 34.1484 14.5557C33.6576 14.1748 33.283 13.6247 33.0249 12.9053C32.7668 12.1816 32.6377 11.3057 32.6377 10.2773C32.6377 9.25326 32.7668 8.37939 33.0249 7.65576C33.2873 6.9279 33.6639 6.37354 34.1548 5.99268C34.6457 5.60758 35.236 5.41504 35.9258 5.41504C36.6156 5.41504 37.2059 5.60758 37.6968 5.99268C38.1877 6.37354 38.5622 6.9279 38.8203 7.65576C39.0827 8.37939 39.2139 9.25326 39.2139 10.2773C39.2139 11.3057 39.0848 12.1816 38.8267 12.9053C38.5685 13.6247 38.194 14.1748 37.7031 14.5557C37.2165 14.9365 36.624 15.127 35.9258 15.127ZM35.9258 14.124C36.3955 14.124 36.7933 13.9738 37.1191 13.6733C37.445 13.3687 37.6925 12.9285 37.8618 12.353C38.0353 11.7775 38.1221 11.0856 38.1221 10.2773C38.1221 9.46484 38.0353 8.77083 37.8618 8.19531C37.6925 7.61979 37.445 7.17969 37.1191 6.875C36.7933 6.57031 36.3955 6.41797 35.9258 6.41797C35.2233 6.41797 34.6816 6.75651 34.3008 7.43359C33.9199 8.11068 33.7295 9.05859 33.7295 10.2773C33.7295 11.0856 33.8141 11.7775 33.9834 12.353C34.1569 12.9285 34.4066 13.3687 34.7324 13.6733C35.0625 13.9738 35.4603 14.124 35.9258 14.124ZM44.9316 10.4424V11.458H40.793V10.4424H44.9316ZM49.4053 15.1523C48.8128 15.1523 48.2902 15.0021 47.8374 14.7017C47.3846 14.4012 47.0312 13.9759 46.7773 13.4258C46.5234 12.8714 46.3965 12.2197 46.3965 11.4707C46.3965 10.7259 46.5234 10.0806 46.7773 9.53467C47.0355 8.98454 47.391 8.56136 47.8438 8.26514C48.2965 7.96468 48.8213 7.81445 49.418 7.81445C49.8835 7.81445 50.2495 7.89062 50.5161 8.04297C50.7869 8.19531 50.9943 8.36882 51.1382 8.56348C51.2821 8.75391 51.3942 8.91048 51.4746 9.0332H51.5635V5.54199H52.6426V15H51.6016V13.9082H51.4746C51.3942 14.0352 51.2799 14.1981 51.1318 14.397C50.9837 14.5916 50.7721 14.7673 50.4971 14.9238C50.2262 15.0762 49.8623 15.1523 49.4053 15.1523ZM49.5449 14.1748C49.985 14.1748 50.3553 14.0605 50.6558 13.832C50.9562 13.5993 51.1847 13.2798 51.3413 12.8735C51.4979 12.4631 51.5762 11.9912 51.5762 11.458C51.5762 10.9248 51.5 10.4593 51.3477 10.0615C51.1953 9.65951 50.9668 9.34847 50.6621 9.12842C50.3617 8.90413 49.9893 8.79199 49.5449 8.79199C49.0879 8.79199 48.707 8.91048 48.4023 9.14746C48.0977 9.38444 47.8691 9.70394 47.7168 10.106C47.5645 10.508 47.4883 10.9587 47.4883 11.458C47.4883 11.9616 47.5645 12.4186 47.7168 12.8291C47.8734 13.2396 48.104 13.5675 48.4087 13.813C48.7134 14.0542 49.0921 14.1748 49.5449 14.1748ZM56.6211 15.165C56.1725 15.165 55.7642 15.0804 55.396 14.9111C55.0278 14.7376 54.7358 14.488 54.52 14.1621C54.3042 13.8363 54.1963 13.4427 54.1963 12.9814C54.1963 12.5752 54.2767 12.2472 54.4375 11.9976C54.5983 11.7437 54.812 11.5448 55.0786 11.4009C55.3494 11.2528 55.6457 11.1427 55.9673 11.0708C56.2931 10.9989 56.6211 10.9417 56.9512 10.8994C57.3828 10.8444 57.7319 10.8021 57.9985 10.7725C58.2694 10.7428 58.4661 10.6921 58.5889 10.6201C58.7158 10.5482 58.7793 10.4255 58.7793 10.252V10.2139C58.7793 9.76107 58.6545 9.40983 58.4048 9.16016C58.1593 8.90625 57.7848 8.7793 57.2812 8.7793C56.765 8.7793 56.3587 8.89355 56.0625 9.12207C55.7663 9.34635 55.5589 9.58757 55.4404 9.8457L54.3994 9.47754C54.5856 9.0459 54.8332 8.70947 55.1421 8.46826C55.4552 8.22705 55.7938 8.05778 56.1577 7.96045C56.5259 7.86312 56.8877 7.81445 57.2432 7.81445C57.4717 7.81445 57.734 7.84196 58.0303 7.89697C58.3265 7.94775 58.6143 8.05778 58.8936 8.22705C59.1771 8.39209 59.4098 8.64388 59.5918 8.98242C59.778 9.31673 59.8711 9.7653 59.8711 10.3281V15H58.7793V14.0352H58.7285C58.6566 14.1875 58.5339 14.3525 58.3604 14.5303C58.1868 14.7038 57.9562 14.854 57.6685 14.981C57.3849 15.1037 57.0358 15.165 56.6211 15.165ZM56.7861 14.1875C57.2178 14.1875 57.5817 14.1029 57.8779 13.9336C58.1742 13.7643 58.3984 13.5464 58.5508 13.2798C58.7031 13.009 58.7793 12.7275 58.7793 12.4355V11.4326C58.7327 11.4876 58.6312 11.5384 58.4746 11.585C58.3223 11.6273 58.1445 11.6654 57.9414 11.6992C57.7425 11.7331 57.5479 11.7627 57.3574 11.7881C57.167 11.8092 57.0146 11.8262 56.9004 11.8389C56.6169 11.877 56.3524 11.9383 56.1069 12.0229C55.8615 12.1034 55.6626 12.224 55.5103 12.3848C55.3621 12.5456 55.2881 12.7656 55.2881 13.0449C55.2881 13.4215 55.4277 13.7072 55.707 13.9019C55.9906 14.0923 56.3503 14.1875 56.7861 14.1875ZM62.2119 17.6533C62.0257 17.6576 61.8607 17.6449 61.7168 17.6152C61.5729 17.5856 61.4714 17.556 61.4121 17.5264L61.6914 16.5742L61.7993 16.5996C62.1632 16.6842 62.4679 16.6652 62.7134 16.5425C62.9631 16.424 63.181 16.1087 63.3672 15.5967L63.5703 15.0381L60.9551 7.90332H62.1357L64.0908 13.5654H64.167L66.1221 7.90332H67.3027L64.2939 16.0283C64.1585 16.3965 63.9914 16.7012 63.7925 16.9424C63.5936 17.1836 63.363 17.3613 63.1006 17.4756C62.8382 17.5941 62.542 17.6533 62.2119 17.6533ZM72.1875 15V7.90332H73.2285V9.02051H73.3301C73.4782 8.63965 73.7173 8.34342 74.0474 8.13184C74.3774 7.92025 74.7731 7.81445 75.2344 7.81445C75.6999 7.81445 76.0871 7.92025 76.396 8.13184C76.7091 8.34342 76.9525 8.63965 77.126 9.02051H77.2021C77.3883 8.65234 77.6613 8.36035 78.021 8.14453C78.3849 7.92448 78.8187 7.81445 79.3223 7.81445C79.957 7.81445 80.4775 8.01335 80.8838 8.41113C81.29 8.80469 81.4932 9.41829 81.4932 10.252V15H80.4014V10.252C80.4014 9.72721 80.2575 9.3527 79.9697 9.12842C79.682 8.90413 79.3434 8.79199 78.9541 8.79199C78.459 8.79199 78.0739 8.94434 77.7988 9.24902C77.528 9.54948 77.3926 9.92611 77.3926 10.3789V15H76.2754V10.1377C76.2754 9.73568 76.1463 9.41195 75.8882 9.1665C75.63 8.91683 75.2936 8.79199 74.8789 8.79199C74.5954 8.79199 74.3309 8.86816 74.0854 9.02051C73.84 9.17285 73.6411 9.38232 73.4888 9.64893C73.3407 9.91553 73.2666 10.2223 73.2666 10.5693V15H72.1875ZM86.2588 15.1523C85.6198 15.1523 85.0591 15 84.5767 14.6953C84.0942 14.3906 83.7176 13.9632 83.4468 13.4131C83.1802 12.863 83.0469 12.224 83.0469 11.4961C83.0469 10.7555 83.1802 10.1102 83.4468 9.56006C83.7176 9.0057 84.0942 8.57617 84.5767 8.27148C85.0591 7.9668 85.6198 7.81445 86.2588 7.81445C86.902 7.81445 87.4648 7.9668 87.9473 8.27148C88.4297 8.57617 88.8063 9.0057 89.0771 9.56006C89.348 10.1102 89.4834 10.7555 89.4834 11.4961C89.4834 12.224 89.348 12.863 89.0771 13.4131C88.8063 13.9632 88.4297 14.3906 87.9473 14.6953C87.4648 15 86.902 15.1523 86.2588 15.1523ZM86.2588 14.1748C86.7497 14.1748 87.1517 14.05 87.4648 13.8003C87.778 13.5506 88.0107 13.2227 88.1631 12.8164C88.3154 12.4059 88.3916 11.9658 88.3916 11.4961C88.3916 11.0179 88.3154 10.5736 88.1631 10.1631C88.0107 9.7526 87.778 9.42253 87.4648 9.17285C87.1517 8.91895 86.7497 8.79199 86.2588 8.79199C85.7764 8.79199 85.3786 8.91895 85.0654 9.17285C84.7523 9.42253 84.5195 9.7526 84.3672 10.1631C84.2148 10.5736 84.1387 11.0179 84.1387 11.4961C84.1387 11.9658 84.2148 12.4059 84.3672 12.8164C84.5195 13.2227 84.7523 13.5506 85.0654 13.8003C85.3786 14.05 85.7764 14.1748 86.2588 14.1748ZM92.1162 10.7344V15H91.0371V7.90332H92.0781V9.02051H92.1797C92.3447 8.65658 92.5965 8.36458 92.9351 8.14453C93.2736 7.92448 93.7116 7.81445 94.249 7.81445C94.7272 7.81445 95.1462 7.91178 95.5059 8.10645C95.8656 8.30111 96.1449 8.59733 96.3438 8.99512C96.5469 9.38867 96.6484 9.88802 96.6484 10.4932V15H95.5693V10.5693C95.5693 10.015 95.4233 9.58122 95.1313 9.26807C94.8394 8.95068 94.4416 8.79199 93.938 8.79199C93.591 8.79199 93.2799 8.86816 93.0049 9.02051C92.7298 9.17285 92.5119 9.3929 92.3511 9.68066C92.1945 9.96842 92.1162 10.3197 92.1162 10.7344ZM101.516 15.1523C100.834 15.1523 100.244 15 99.7446 14.6953C99.2495 14.3906 98.8687 13.9653 98.6021 13.4194C98.3354 12.8693 98.2021 12.2324 98.2021 11.5088C98.2021 10.7809 98.3333 10.1398 98.5957 9.58545C98.8581 9.03109 99.2262 8.59733 99.7002 8.28418C100.178 7.97103 100.737 7.81445 101.376 7.81445C101.744 7.81445 102.11 7.87581 102.474 7.99854C102.838 8.12126 103.168 8.32015 103.464 8.59521C103.765 8.87028 104.004 9.23421 104.182 9.68701C104.359 10.1398 104.448 10.6963 104.448 11.3564V11.8262H98.9766V10.8867H103.858L103.356 11.2422C103.356 10.7682 103.282 10.3472 103.134 9.979C102.986 9.61084 102.764 9.32096 102.468 9.10938C102.176 8.89779 101.812 8.79199 101.376 8.79199C100.94 8.79199 100.566 8.8999 100.252 9.11572C99.9435 9.32731 99.7065 9.60449 99.5415 9.94727C99.3765 10.29 99.2939 10.6582 99.2939 11.0518V11.6738C99.2939 12.2113 99.387 12.6662 99.5732 13.0386C99.7594 13.411 100.02 13.6945 100.354 13.8892C100.688 14.0796 101.076 14.1748 101.516 14.1748C101.799 14.1748 102.057 14.1346 102.29 14.0542C102.523 13.9696 102.724 13.8447 102.893 13.6797C103.062 13.5104 103.191 13.3031 103.28 13.0576L104.334 13.3623C104.224 13.7178 104.038 14.0309 103.775 14.3018C103.517 14.5684 103.196 14.7778 102.811 14.9302C102.425 15.0783 101.994 15.1523 101.516 15.1523ZM106.421 17.6533C106.235 17.6576 106.07 17.6449 105.926 17.6152C105.782 17.5856 105.68 17.556 105.621 17.5264L105.9 16.5742L106.008 16.5996C106.372 16.6842 106.677 16.6652 106.922 16.5425C107.172 16.424 107.39 16.1087 107.576 15.5967L107.779 15.0381L105.164 7.90332H106.345L108.3 13.5654H108.376L110.331 7.90332H111.512L108.503 16.0283C108.368 16.3965 108.2 16.7012 108.001 16.9424C107.803 17.1836 107.572 17.3613 107.31 17.4756C107.047 17.5941 106.751 17.6533 106.421 17.6533ZM119.634 15.1523C119.181 15.1523 118.817 15.0762 118.542 14.9238C118.267 14.7673 118.055 14.5916 117.907 14.397C117.759 14.1981 117.645 14.0352 117.564 13.9082H117.438V15H116.396V5.54199H117.476V9.0332H117.564C117.645 8.91048 117.757 8.75391 117.901 8.56348C118.045 8.36882 118.252 8.19531 118.523 8.04297C118.794 7.89062 119.16 7.81445 119.621 7.81445C120.218 7.81445 120.743 7.96468 121.195 8.26514C121.648 8.56136 122.001 8.98454 122.255 9.53467C122.514 10.0806 122.643 10.7259 122.643 11.4707C122.643 12.2197 122.516 12.8714 122.262 13.4258C122.008 13.9759 121.654 14.4012 121.202 14.7017C120.749 15.0021 120.226 15.1523 119.634 15.1523ZM119.494 14.1748C119.947 14.1748 120.326 14.0542 120.63 13.813C120.935 13.5675 121.164 13.2396 121.316 12.8291C121.472 12.4186 121.551 11.9616 121.551 11.458C121.551 10.9587 121.475 10.508 121.322 10.106C121.17 9.70394 120.941 9.38444 120.637 9.14746C120.336 8.91048 119.955 8.79199 119.494 8.79199C119.05 8.79199 118.677 8.90413 118.377 9.12842C118.076 9.34847 117.848 9.65951 117.691 10.0615C117.539 10.4593 117.463 10.9248 117.463 11.458C117.463 11.9912 117.541 12.4631 117.698 12.8735C117.854 13.2798 118.083 13.5993 118.383 13.832C118.688 14.0605 119.058 14.1748 119.494 14.1748ZM126.278 15.165C125.83 15.165 125.421 15.0804 125.053 14.9111C124.685 14.7376 124.393 14.488 124.177 14.1621C123.961 13.8363 123.854 13.4427 123.854 12.9814C123.854 12.5752 123.934 12.2472 124.095 11.9976C124.256 11.7437 124.469 11.5448 124.736 11.4009C125.007 11.2528 125.303 11.1427 125.625 11.0708C125.95 10.9989 126.278 10.9417 126.608 10.8994C127.04 10.8444 127.389 10.8021 127.656 10.7725C127.927 10.7428 128.123 10.6921 128.246 10.6201C128.373 10.5482 128.437 10.4255 128.437 10.252V10.2139C128.437 9.76107 128.312 9.40983 128.062 9.16016C127.817 8.90625 127.442 8.7793 126.938 8.7793C126.422 8.7793 126.016 8.89355 125.72 9.12207C125.424 9.34635 125.216 9.58757 125.098 9.8457L124.057 9.47754C124.243 9.0459 124.49 8.70947 124.799 8.46826C125.112 8.22705 125.451 8.05778 125.815 7.96045C126.183 7.86312 126.545 7.81445 126.9 7.81445C127.129 7.81445 127.391 7.84196 127.688 7.89697C127.984 7.94775 128.271 8.05778 128.551 8.22705C128.834 8.39209 129.067 8.64388 129.249 8.98242C129.435 9.31673 129.528 9.7653 129.528 10.3281V15H128.437V14.0352H128.386C128.314 14.1875 128.191 14.3525 128.018 14.5303C127.844 14.7038 127.613 14.854 127.326 14.981C127.042 15.1037 126.693 15.165 126.278 15.165ZM126.443 14.1875C126.875 14.1875 127.239 14.1029 127.535 13.9336C127.831 13.7643 128.056 13.5464 128.208 13.2798C128.36 13.009 128.437 12.7275 128.437 12.4355V11.4326C128.39 11.4876 128.288 11.5384 128.132 11.585C127.979 11.6273 127.802 11.6654 127.599 11.6992C127.4 11.7331 127.205 11.7627 127.015 11.7881C126.824 11.8092 126.672 11.8262 126.558 11.8389C126.274 11.877 126.01 11.9383 125.764 12.0229C125.519 12.1034 125.32 12.224 125.167 12.3848C125.019 12.5456 124.945 12.7656 124.945 13.0449C124.945 13.4215 125.085 13.7072 125.364 13.9019C125.648 14.0923 126.007 14.1875 126.443 14.1875ZM134.294 15.1523C133.634 15.1523 133.062 14.9958 132.58 14.6826C132.102 14.3652 131.732 13.9315 131.469 13.3813C131.211 12.8312 131.082 12.2028 131.082 11.4961C131.082 10.7725 131.215 10.1356 131.482 9.58545C131.749 9.03109 132.121 8.59733 132.599 8.28418C133.082 7.97103 133.642 7.81445 134.281 7.81445C134.781 7.81445 135.229 7.90755 135.627 8.09375C136.029 8.27572 136.357 8.53385 136.611 8.86816C136.869 9.20247 137.028 9.5918 137.087 10.0361H135.995C135.94 9.82031 135.841 9.61719 135.697 9.42676C135.553 9.23633 135.362 9.08398 135.125 8.96973C134.893 8.85124 134.616 8.79199 134.294 8.79199C133.871 8.79199 133.5 8.90202 133.183 9.12207C132.866 9.34212 132.618 9.65316 132.44 10.0552C132.263 10.453 132.174 10.9206 132.174 11.458C132.174 12.0039 132.261 12.4821 132.434 12.8926C132.608 13.2988 132.853 13.6141 133.17 13.8384C133.492 14.0627 133.867 14.1748 134.294 14.1748C134.721 14.1748 135.087 14.0648 135.392 13.8447C135.697 13.6204 135.898 13.3158 135.995 12.9307H137.087C137.028 13.3496 136.875 13.7262 136.63 14.0605C136.389 14.3949 136.069 14.6615 135.671 14.8604C135.278 15.055 134.819 15.1523 134.294 15.1523ZM139.631 12.4102L139.605 11.0645H139.834L142.932 7.90332H144.277L140.977 11.2549H140.875L139.631 12.4102ZM138.615 15V5.54199H139.694V15H138.615ZM143.109 15L140.342 11.4961L141.116 10.7344L144.506 15H143.109ZM151.98 17.8057C151.189 17.8057 150.563 17.6618 150.102 17.374C149.645 17.0863 149.306 16.7562 149.086 16.3838L149.949 15.7744C150.047 15.9056 150.171 16.0537 150.324 16.2188C150.476 16.388 150.683 16.534 150.946 16.6567C151.208 16.7795 151.553 16.8408 151.98 16.8408C152.552 16.8408 153.024 16.7033 153.396 16.4282C153.773 16.1532 153.961 15.7194 153.961 15.127V13.6924H153.859C153.783 13.8193 153.671 13.978 153.523 14.1685C153.379 14.3547 153.17 14.5218 152.895 14.6699C152.624 14.8138 152.256 14.8857 151.79 14.8857C151.219 14.8857 150.707 14.7503 150.254 14.4795C149.801 14.2087 149.441 13.8151 149.175 13.2988C148.912 12.7826 148.781 12.1562 148.781 11.4199C148.781 10.6921 148.908 10.0594 149.162 9.52197C149.42 8.98031 149.778 8.56136 150.235 8.26514C150.692 7.96468 151.219 7.81445 151.815 7.81445C152.277 7.81445 152.643 7.89062 152.914 8.04297C153.189 8.19531 153.398 8.36882 153.542 8.56348C153.69 8.75391 153.804 8.91048 153.885 9.0332H153.999V7.90332H155.04V15.2031C155.04 15.8125 154.903 16.3076 154.627 16.6885C154.357 17.0736 153.988 17.355 153.523 17.5327C153.062 17.7147 152.548 17.8057 151.98 17.8057ZM151.942 13.9082C152.598 13.9082 153.1 13.686 153.447 13.2417C153.798 12.7974 153.974 12.1816 153.974 11.3945C153.974 10.8825 153.897 10.4318 153.745 10.0425C153.593 9.65316 153.364 9.34847 153.06 9.12842C152.759 8.90413 152.387 8.79199 151.942 8.79199C151.481 8.79199 151.096 8.91048 150.787 9.14746C150.482 9.38021 150.254 9.69336 150.102 10.0869C149.949 10.4805 149.873 10.9163 149.873 11.3945C149.873 11.8854 149.949 12.3213 150.102 12.7021C150.258 13.0788 150.491 13.375 150.8 13.5908C151.109 13.8024 151.49 13.9082 151.942 13.9082ZM161.405 12.1055V7.90332H162.484V15H161.405V13.7939H161.329C161.16 14.1536 160.9 14.4604 160.548 14.7144C160.201 14.9683 159.759 15.0931 159.222 15.0889C158.777 15.0889 158.384 14.9937 158.041 14.8032C157.698 14.6086 157.427 14.3123 157.229 13.9146C157.034 13.5168 156.937 13.0153 156.937 12.4102V7.90332H158.016V12.3467C158.016 12.8587 158.162 13.2692 158.454 13.5781C158.75 13.887 159.124 14.0394 159.577 14.0352C159.848 14.0352 160.123 13.9674 160.402 13.832C160.686 13.6924 160.923 13.4808 161.113 13.1973C161.308 12.9095 161.405 12.5456 161.405 12.1055ZM166.463 15.165C166.014 15.165 165.606 15.0804 165.238 14.9111C164.87 14.7376 164.578 14.488 164.362 14.1621C164.146 13.8363 164.038 13.4427 164.038 12.9814C164.038 12.5752 164.118 12.2472 164.279 11.9976C164.44 11.7437 164.654 11.5448 164.92 11.4009C165.191 11.2528 165.487 11.1427 165.809 11.0708C166.135 10.9989 166.463 10.9417 166.793 10.8994C167.225 10.8444 167.574 10.8021 167.84 10.7725C168.111 10.7428 168.308 10.6921 168.431 10.6201C168.558 10.5482 168.621 10.4255 168.621 10.252V10.2139C168.621 9.76107 168.496 9.40983 168.247 9.16016C168.001 8.90625 167.627 8.7793 167.123 8.7793C166.607 8.7793 166.201 8.89355 165.904 9.12207C165.608 9.34635 165.401 9.58757 165.282 9.8457L164.241 9.47754C164.427 9.0459 164.675 8.70947 164.984 8.46826C165.297 8.22705 165.636 8.05778 166 7.96045C166.368 7.86312 166.729 7.81445 167.085 7.81445C167.313 7.81445 167.576 7.84196 167.872 7.89697C168.168 7.94775 168.456 8.05778 168.735 8.22705C169.019 8.39209 169.252 8.64388 169.434 8.98242C169.62 9.31673 169.713 9.7653 169.713 10.3281V15H168.621V14.0352H168.57C168.498 14.1875 168.376 14.3525 168.202 14.5303C168.029 14.7038 167.798 14.854 167.51 14.981C167.227 15.1037 166.878 15.165 166.463 15.165ZM166.628 14.1875C167.06 14.1875 167.424 14.1029 167.72 13.9336C168.016 13.7643 168.24 13.5464 168.393 13.2798C168.545 13.009 168.621 12.7275 168.621 12.4355V11.4326C168.575 11.4876 168.473 11.5384 168.316 11.585C168.164 11.6273 167.986 11.6654 167.783 11.6992C167.584 11.7331 167.39 11.7627 167.199 11.7881C167.009 11.8092 166.856 11.8262 166.742 11.8389C166.459 11.877 166.194 11.9383 165.949 12.0229C165.703 12.1034 165.504 12.224 165.352 12.3848C165.204 12.5456 165.13 12.7656 165.13 13.0449C165.13 13.4215 165.27 13.7072 165.549 13.9019C165.832 14.0923 166.192 14.1875 166.628 14.1875ZM171.609 15V7.90332H172.65V8.98242H172.727C172.858 8.63118 173.093 8.34766 173.431 8.13184C173.774 7.91178 174.157 7.80176 174.58 7.80176C174.66 7.80176 174.76 7.80387 174.878 7.80811C174.997 7.80811 175.088 7.81022 175.151 7.81445V8.91895C175.113 8.91048 175.029 8.89779 174.897 8.88086C174.766 8.86393 174.627 8.85547 174.479 8.85547C174.136 8.85547 173.829 8.92741 173.558 9.07129C173.287 9.21517 173.074 9.41195 172.917 9.66162C172.765 9.9113 172.688 10.1969 172.688 10.5186V15H171.609ZM178.419 15.165C177.97 15.165 177.562 15.0804 177.194 14.9111C176.826 14.7376 176.534 14.488 176.318 14.1621C176.102 13.8363 175.994 13.4427 175.994 12.9814C175.994 12.5752 176.075 12.2472 176.235 11.9976C176.396 11.7437 176.61 11.5448 176.876 11.4009C177.147 11.2528 177.444 11.1427 177.765 11.0708C178.091 10.9989 178.419 10.9417 178.749 10.8994C179.181 10.8444 179.53 10.8021 179.796 10.7725C180.067 10.7428 180.264 10.6921 180.387 10.6201C180.514 10.5482 180.577 10.4255 180.577 10.252V10.2139C180.577 9.76107 180.452 9.40983 180.203 9.16016C179.957 8.90625 179.583 8.7793 179.079 8.7793C178.563 8.7793 178.157 8.89355 177.86 9.12207C177.564 9.34635 177.357 9.58757 177.238 9.8457L176.197 9.47754C176.383 9.0459 176.631 8.70947 176.94 8.46826C177.253 8.22705 177.592 8.05778 177.956 7.96045C178.324 7.86312 178.686 7.81445 179.041 7.81445C179.27 7.81445 179.532 7.84196 179.828 7.89697C180.124 7.94775 180.412 8.05778 180.691 8.22705C180.975 8.39209 181.208 8.64388 181.39 8.98242C181.576 9.31673 181.669 9.7653 181.669 10.3281V15H180.577V14.0352H180.526C180.454 14.1875 180.332 14.3525 180.158 14.5303C179.985 14.7038 179.754 14.854 179.466 14.981C179.183 15.1037 178.834 15.165 178.419 15.165ZM178.584 14.1875C179.016 14.1875 179.38 14.1029 179.676 13.9336C179.972 13.7643 180.196 13.5464 180.349 13.2798C180.501 13.009 180.577 12.7275 180.577 12.4355V11.4326C180.531 11.4876 180.429 11.5384 180.272 11.585C180.12 11.6273 179.942 11.6654 179.739 11.6992C179.54 11.7331 179.346 11.7627 179.155 11.7881C178.965 11.8092 178.812 11.8262 178.698 11.8389C178.415 11.877 178.15 11.9383 177.905 12.0229C177.659 12.1034 177.46 12.224 177.308 12.3848C177.16 12.5456 177.086 12.7656 177.086 13.0449C177.086 13.4215 177.226 13.7072 177.505 13.9019C177.788 14.0923 178.148 14.1875 178.584 14.1875ZM184.645 10.7344V15H183.565V7.90332H184.606V9.02051H184.708C184.873 8.65658 185.125 8.36458 185.463 8.14453C185.802 7.92448 186.24 7.81445 186.777 7.81445C187.256 7.81445 187.674 7.91178 188.034 8.10645C188.394 8.30111 188.673 8.59733 188.872 8.99512C189.075 9.38867 189.177 9.88802 189.177 10.4932V15H188.098V10.5693C188.098 10.015 187.952 9.58122 187.66 9.26807C187.368 8.95068 186.97 8.79199 186.466 8.79199C186.119 8.79199 185.808 8.86816 185.533 9.02051C185.258 9.17285 185.04 9.3929 184.879 9.68066C184.723 9.96842 184.645 10.3197 184.645 10.7344ZM194.146 7.90332V8.83008H190.477V7.90332H194.146ZM191.543 6.21484H192.622V12.9688C192.622 13.3369 192.698 13.6077 192.851 13.7812C193.003 13.9505 193.244 14.0352 193.574 14.0352C193.646 14.0352 193.72 14.0309 193.796 14.0225C193.877 14.014 193.964 14.0013 194.057 13.9844L194.285 14.9619C194.184 15 194.059 15.0296 193.911 15.0508C193.767 15.0762 193.621 15.0889 193.473 15.0889C192.901 15.0889 192.436 14.9196 192.076 14.5811C191.721 14.2425 191.543 13.8024 191.543 13.2607V6.21484ZM198.581 15.1523C197.9 15.1523 197.309 15 196.81 14.6953C196.315 14.3906 195.934 13.9653 195.667 13.4194C195.401 12.8693 195.268 12.2324 195.268 11.5088C195.268 10.7809 195.399 10.1398 195.661 9.58545C195.924 9.03109 196.292 8.59733 196.766 8.28418C197.244 7.97103 197.802 7.81445 198.441 7.81445C198.81 7.81445 199.176 7.87581 199.54 7.99854C199.903 8.12126 200.234 8.32015 200.53 8.59521C200.83 8.87028 201.069 9.23421 201.247 9.68701C201.425 10.1398 201.514 10.6963 201.514 11.3564V11.8262H196.042V10.8867H200.923L200.422 11.2422C200.422 10.7682 200.348 10.3472 200.2 9.979C200.052 9.61084 199.829 9.32096 199.533 9.10938C199.241 8.89779 198.877 8.79199 198.441 8.79199C198.006 8.79199 197.631 8.8999 197.318 9.11572C197.009 9.32731 196.772 9.60449 196.607 9.94727C196.442 10.29 196.359 10.6582 196.359 11.0518V11.6738C196.359 12.2113 196.452 12.6662 196.639 13.0386C196.825 13.411 197.085 13.6945 197.419 13.8892C197.754 14.0796 198.141 14.1748 198.581 14.1748C198.865 14.1748 199.123 14.1346 199.355 14.0542C199.588 13.9696 199.789 13.8447 199.958 13.6797C200.128 13.5104 200.257 13.3031 200.346 13.0576L201.399 13.3623C201.289 13.7178 201.103 14.0309 200.841 14.3018C200.583 14.5684 200.261 14.7778 199.876 14.9302C199.491 15.0783 199.059 15.1523 198.581 15.1523ZM206.013 15.1523C205.331 15.1523 204.741 15 204.242 14.6953C203.747 14.3906 203.366 13.9653 203.099 13.4194C202.833 12.8693 202.699 12.2324 202.699 11.5088C202.699 10.7809 202.83 10.1398 203.093 9.58545C203.355 9.03109 203.723 8.59733 204.197 8.28418C204.675 7.97103 205.234 7.81445 205.873 7.81445C206.241 7.81445 206.607 7.87581 206.971 7.99854C207.335 8.12126 207.665 8.32015 207.961 8.59521C208.262 8.87028 208.501 9.23421 208.679 9.68701C208.856 10.1398 208.945 10.6963 208.945 11.3564V11.8262H203.474V10.8867H208.355L207.854 11.2422C207.854 10.7682 207.779 10.3472 207.631 9.979C207.483 9.61084 207.261 9.32096 206.965 9.10938C206.673 8.89779 206.309 8.79199 205.873 8.79199C205.437 8.79199 205.063 8.8999 204.75 9.11572C204.441 9.32731 204.204 9.60449 204.039 9.94727C203.874 10.29 203.791 10.6582 203.791 11.0518V11.6738C203.791 12.2113 203.884 12.6662 204.07 13.0386C204.257 13.411 204.517 13.6945 204.851 13.8892C205.185 14.0796 205.573 14.1748 206.013 14.1748C206.296 14.1748 206.554 14.1346 206.787 14.0542C207.02 13.9696 207.221 13.8447 207.39 13.6797C207.559 13.5104 207.688 13.3031 207.777 13.0576L208.831 13.3623C208.721 13.7178 208.535 14.0309 208.272 14.3018C208.014 14.5684 207.693 14.7778 207.308 14.9302C206.923 15.0783 206.491 15.1523 206.013 15.1523Z" fill="#424153"/>
</svg>
